<svg xmlns="http://www.w3.org/2000/svg" width="1440" height="1000" viewBox="0 0 1440 1000"><title>Đơn hàng</title><desc>Original static design reference, sample data; not runtime screenshot.</desc><rect width="1440" height="1000" fill="#F0F3F9"/><text x="28" y="19" font-family="Open Sans" font-size="8" font-weight="600" fill="#536076" text-anchor="start">EVOBASE · builder-data · STATIC DESIGN / SAMPLE DATA</text><rect x="0" y="28" width="1440" height="68" rx="0" fill="#FBFCFF"/><g transform="translate(28 44) scale(.48)"><rect width="64" height="64" rx="22" fill="#3154B8"/><path d="M20 17H45V24H27V29H41V36H27V41H45V48H20Z" fill="#FFFFFF"/><circle cx="47" cy="18" r="4" fill="#C4EFE3"/><path d="M42 20L48 15" stroke="#C4EFE3" stroke-width="3"/></g><text x="70" y="67" font-family="Open Sans" font-size="18" font-weight="600" fill="#1C2638" text-anchor="start">EvoBase</text><rect x="245" y="47" width="103" height="26" rx="13" fill="#DEE5FF"/><text x="257" y="65" font-family="Open Sans" font-size="10" font-weight="600" fill="#142A62" text-anchor="start">Builder</text><text x="370" y="67" font-family="Open Sans" font-size="13" font-weight="400" fill="#536076" text-anchor="start">Không gian   /   Bán hàng</text><rect x="977" y="42" width="310" height="44" rx="22" fill="#F0F3F9"/><text x="996" y="70" font-family="Open Sans" font-size="12" font-weight="400" fill="#536076" text-anchor="start">Tìm bảng, record, hành động…</text><rect x="1352" y="42" width="44" height="44" rx="18" fill="#C4EFE3"/><text x="1374" y="70" font-family="Open Sans" font-size="12" font-weight="600" fill="#003D35" text-anchor="middle">LA</text><rect x="20" y="112" width="216" height="848" rx="24" fill="#FBFCFF"/><text x="40" y="146" font-family="Open Sans" font-size="10" font-weight="600" fill="#536076" text-anchor="start">KHÔNG GIAN</text><text x="40" y="173" font-family="Open Sans" font-size="18" font-weight="600" fill="#1C2638" text-anchor="start">Bán hàng</text><rect x="30" y="201" width="196" height="49" rx="18" fill="#DEE5FF"/><g transform="translate(44 214) scale(0.9090909090909091)"><path d="M3 3H19V19H3ZM3 9H19M9 3V19" fill="none" stroke="#142A62" stroke-width="1.7" stroke-linecap="round" stroke-linejoin="round"/></g><text x="75" y="231" font-family="Open Sans" font-size="10.5" font-weight="600" fill="#142A62" text-anchor="start">Bảng dữ liệu</text><rect x="30" y="258" width="196" height="49" rx="18" fill="#FBFCFF"/><g transform="translate(44 271) scale(0.9090909090909091)"><path d="M4 5H8V9H4ZM14 13H18V17H14ZM8 7H16V13" fill="none" stroke="#536076" stroke-width="1.7" stroke-linecap="round" stroke-linejoin="round"/></g><text x="75" y="288" font-family="Open Sans" font-size="10.5" font-weight="400" fill="#536076" text-anchor="start">Cấu trúc &amp; Quan hệ</text><rect x="30" y="315" width="196" height="49" rx="18" fill="#FBFCFF"/><g transform="translate(44 328) scale(0.9090909090909091)"><path d="M11 2L19 5V11C19 16 11 20 11 20S3 16 3 11V5ZM7 10L10 13L16 7" fill="none" stroke="#536076" stroke-width="1.7" stroke-linecap="round" stroke-linejoin="round"/></g><text x="75" y="345" font-family="Open Sans" font-size="10.5" font-weight="400" fill="#536076" text-anchor="start">Quy tắc &amp; Quyền</text><rect x="30" y="372" width="196" height="49" rx="18" fill="#FBFCFF"/><g transform="translate(44 385) scale(0.9090909090909091)"><path d="M2 6H20V18H2ZM2 10H20M8 10V18" fill="none" stroke="#536076" stroke-width="1.7" stroke-linecap="round" stroke-linejoin="round"/></g><text x="75" y="402" font-family="Open Sans" font-size="10.5" font-weight="400" fill="#536076" text-anchor="start">Chế độ xem</text><rect x="30" y="429" width="196" height="49" rx="18" fill="#FBFCFF"/><g transform="translate(44 442) scale(0.9090909090909091)"><path d="M4 2V7H9V12H16V18M1 2H7M13 18H19" fill="none" stroke="#536076" stroke-width="1.7" stroke-linecap="round" stroke-linejoin="round"/></g><text x="75" y="459" font-family="Open Sans" font-size="10.5" font-weight="400" fill="#536076" text-anchor="start">Hành động &amp; Quy trình</text><rect x="30" y="486" width="196" height="49" rx="18" fill="#FBFCFF"/><g transform="translate(44 499) scale(0.9090909090909091)"><path d="M7 4V9M15 4V9M5 9H17V13C17 17 5 17 5 13ZM11 17V21" fill="none" stroke="#536076" stroke-width="1.7" stroke-linecap="round" stroke-linejoin="round"/></g><text x="75" y="516" font-family="Open Sans" font-size="10.5" font-weight="400" fill="#536076" text-anchor="start">Kết nối</text><rect x="30" y="543" width="196" height="49" rx="18" fill="#FBFCFF"/><g transform="translate(44 556) scale(0.9090909090909091)"><path d="M4 4H18V18H4ZM8 11L11 8L14 11M11 8V16" fill="none" stroke="#536076" stroke-width="1.7" stroke-linecap="round" stroke-linejoin="round"/></g><text x="75" y="573" font-family="Open Sans" font-size="10.5" font-weight="400" fill="#536076" text-anchor="start">Xuất bản</text><path d="M40 776L214 776" stroke="#C3CDDD" stroke-width="1" fill="none"/><rect x="40" y="799" width="174" height="26" rx="13" fill="#DEE5FF"/><text x="52" y="817" font-family="Open Sans" font-size="10" font-weight="600" fill="#142A62" text-anchor="start">BẢN NHÁP 12</text><text x="40" y="849.0" font-family="Open Sans" font-size="11" font-weight="400" fill="#536076" text-anchor="start">Builder và Runtime có quyền và</text><text x="40" y="866.6" font-family="Open Sans" font-size="11" font-weight="400" fill="#536076" text-anchor="start">vòng đời riêng.</text><text x="40" y="931" font-family="Open Sans" font-size="12" font-weight="400" fill="#536076" text-anchor="start">?  Trợ giúp</text><text x="264" y="134" font-family="Open Sans" font-size="10" font-weight="600" fill="#536076" text-anchor="start">BÁN HÀNG / BẢN NHÁP 12</text><text x="264" y="172.0" font-family="Open Sans" font-size="36" font-weight="600" fill="#1C2638" text-anchor="start">Đơn hàng</text><text x="264" y="226.07999999999998" font-family="Open Sans" font-size="13" font-weight="400" fill="#536076" text-anchor="start">Liên kết khách hàng và theo dõi đơn trong bản nháp của bạn.</text><rect x="264" y="255.88" width="104.234375" height="26" rx="13" fill="#DEE5FF"/><text x="276" y="273.88" font-family="Open Sans" font-size="10" font-weight="600" fill="#142A62" text-anchor="start">Đã lưu bản nháp</text><rect x="1151" y="153" width="245" height="48" rx="24.0" fill="#3154B8"/><text x="1273.5" y="181.0" font-family="Open Sans" font-size="12" font-weight="600" fill="#FFFFFF" text-anchor="middle">Thêm bản ghi mẫu</text><rect x="264" y="299.88" width="828" height="535" rx="24" fill="#FBFCFF"/><rect x="280" y="316.88" width="57.375" height="26" rx="13" fill="#DEE5FF"/><text x="292" y="334.88" font-family="Open Sans" font-size="10" font-weight="600" fill="#142A62" text-anchor="start">Orders</text><rect x="345.375" y="316.88" width="76.125" height="26" rx="13" fill="#E9EEF7"/><text x="357.375" y="334.88" font-family="Open Sans" font-size="10" font-weight="600" fill="#536076" text-anchor="start">Customers</text><rect x="429.5" y="316.88" width="77.6875" height="26" rx="13" fill="#E9EEF7"/><text x="441.5" y="334.88" font-family="Open Sans" font-size="10" font-weight="600" fill="#536076" text-anchor="start">OrderLines</text><rect x="515.1875" y="316.88" width="66.921875" height="26" rx="13" fill="#E9EEF7"/><text x="527.1875" y="334.88" font-family="Open Sans" font-size="10" font-weight="600" fill="#536076" text-anchor="start">Products</text><rect x="280" y="361.88" width="796" height="46" rx="14" fill="#F0F3F9"/><text x="295" y="390.88" font-family="Open Sans" font-size="12" font-weight="400" fill="#536076" text-anchor="start">⌕  Tìm đơn hàng</text><rect x="830" y="371.88" width="102.734375" height="26" rx="13" fill="#E9EEF7"/><text x="842" y="389.88" font-family="Open Sans" font-size="10" font-weight="600" fill="#536076" text-anchor="start">Tất cả trạng thái</text><text x="987" y="390.88" font-family="Open Sans" font-size="11" font-weight="600" fill="#3154B8" text-anchor="start">+ Bộ lọc</text><text x="290" y="438.88" font-family="Open Sans" font-size="10" font-weight="600" fill="#536076" text-anchor="start">Mã đơn</text><text x="410" y="438.88" font-family="Open Sans" font-size="10" font-weight="600" fill="#536076" text-anchor="start">Khách hàng ↗</text><text x="586" y="438.88" font-family="Open Sans" font-size="10" font-weight="600" fill="#536076" text-anchor="start">Trạng thái</text><text x="708" y="438.88" font-family="Open Sans" font-size="10" font-weight="600" fill="#536076" text-anchor="start">Tổng (VND) ƒ</text><text x="858" y="438.88" font-family="Open Sans" font-size="10" font-weight="600" fill="#536076" text-anchor="start">Phụ trách</text><rect x="280" y="450.88" width="796" height="54" rx="8" fill="#FBFCFF"/><text x="290" y="483.88" font-family="Open Sans" font-size="11" font-weight="600" fill="#1C2638" text-anchor="start">ORD-1048</text><rect x="408" y="464.88" width="64.25" height="26" rx="13" fill="#DEE5FF"/><text x="420" y="482.88" font-family="Open Sans" font-size="10" font-weight="600" fill="#142A62" text-anchor="start">Minh An</text><rect x="584" y="464.88" width="55.171875" height="26" rx="13" fill="#E9EEF7"/><text x="596" y="482.88" font-family="Open Sans" font-size="10" font-weight="600" fill="#536076" text-anchor="start">Đã gửi</text><text x="708" y="483.88" font-family="Open Sans" font-size="11" font-weight="400" fill="#1C2638" text-anchor="start">12.480.000 ₫</text><text x="858" y="483.88" font-family="Open Sans" font-size="11" font-weight="400" fill="#1C2638" text-anchor="start">Linh</text><path d="M280 504.88L1076 504.88" stroke="#C3CDDD" stroke-width="1" fill="none"/><rect x="280" y="505.88" width="796" height="54" rx="8" fill="#DEE5FF"/><text x="290" y="538.88" font-family="Open Sans" font-size="11" font-weight="600" fill="#1C2638" text-anchor="start">ORD-1047</text><rect x="408" y="519.88" width="58.390625" height="26" rx="13" fill="#DEE5FF"/><text x="420" y="537.88" font-family="Open Sans" font-size="10" font-weight="600" fill="#142A62" text-anchor="start">An Phú</text><rect x="584" y="519.88" width="50.203125" height="26" rx="13" fill="#E9EEF7"/><text x="596" y="537.88" font-family="Open Sans" font-size="10" font-weight="600" fill="#536076" text-anchor="start">Nháp</text><text x="708" y="538.88" font-family="Open Sans" font-size="11" font-weight="400" fill="#1C2638" text-anchor="start">4.620.000 ₫</text><text x="858" y="538.88" font-family="Open Sans" font-size="11" font-weight="400" fill="#1C2638" text-anchor="start">Bạn</text><path d="M280 559.88L1076 559.88" stroke="#C3CDDD" stroke-width="1" fill="none"/><rect x="400" y="507.88" width="176" height="50" rx="8" fill="none" stroke="#3154B8" stroke-width="3"/><rect x="280" y="560.88" width="796" height="54" rx="8" fill="#FBFCFF"/><text x="290" y="593.88" font-family="Open Sans" font-size="11" font-weight="600" fill="#1C2638" text-anchor="start">ORD-1046</text><rect x="408" y="574.88" width="60.71875" height="26" rx="13" fill="#DEE5FF"/><text x="420" y="592.88" font-family="Open Sans" font-size="10" font-weight="600" fill="#142A62" text-anchor="start">Hải Yến</text><rect x="584" y="574.88" width="67.34375" height="26" rx="13" fill="#E9EEF7"/><text x="596" y="592.88" font-family="Open Sans" font-size="10" font-weight="600" fill="#536076" text-anchor="start">Đã duyệt</text><text x="708" y="593.88" font-family="Open Sans" font-size="11" font-weight="400" fill="#1C2638" text-anchor="start">8.950.000 ₫</text><text x="858" y="593.88" font-family="Open Sans" font-size="11" font-weight="400" fill="#1C2638" text-anchor="start">Linh</text><path d="M280 614.88L1076 614.88" stroke="#C3CDDD" stroke-width="1" fill="none"/><rect x="280" y="615.88" width="796" height="54" rx="8" fill="#FBFCFF"/><text x="290" y="648.88" font-family="Open Sans" font-size="11" font-weight="600" fill="#1C2638" text-anchor="start">ORD-1045</text><rect x="408" y="629.88" width="75.109375" height="26" rx="13" fill="#DEE5FF"/><text x="420" y="647.88" font-family="Open Sans" font-size="10" font-weight="600" fill="#142A62" text-anchor="start">Đông Nam</text><rect x="584" y="629.88" width="50.203125" height="26" rx="13" fill="#E9EEF7"/><text x="596" y="647.88" font-family="Open Sans" font-size="10" font-weight="600" fill="#536076" text-anchor="start">Nháp</text><text x="708" y="648.88" font-family="Open Sans" font-size="11" font-weight="400" fill="#1C2638" text-anchor="start">2.180.000 ₫</text><text x="858" y="648.88" font-family="Open Sans" font-size="11" font-weight="400" fill="#1C2638" text-anchor="start">Bạn</text><path d="M280 669.88L1076 669.88" stroke="#C3CDDD" stroke-width="1" fill="none"/><rect x="280" y="670.88" width="796" height="54" rx="8" fill="#FBFCFF"/><text x="290" y="703.88" font-family="Open Sans" font-size="11" font-weight="600" fill="#1C2638" text-anchor="start">ORD-1044</text><rect x="408" y="684.88" width="73.375" height="26" rx="13" fill="#DEE5FF"/><text x="420" y="702.88" font-family="Open Sans" font-size="10" font-weight="600" fill="#142A62" text-anchor="start">Bình Minh</text><rect x="584" y="684.88" width="55.171875" height="26" rx="13" fill="#E9EEF7"/><text x="596" y="702.88" font-family="Open Sans" font-size="10" font-weight="600" fill="#536076" text-anchor="start">Đã gửi</text><text x="708" y="703.88" font-family="Open Sans" font-size="11" font-weight="400" fill="#1C2638" text-anchor="start">6.740.000 ₫</text><text x="858" y="703.88" font-family="Open Sans" font-size="11" font-weight="400" fill="#1C2638" text-anchor="start">An</text><path d="M280 724.88L1076 724.88" stroke="#C3CDDD" stroke-width="1" fill="none"/><text x="290" y="764.88" font-family="Open Sans" font-size="10" font-weight="400" fill="#536076" text-anchor="start">5 / 148 bản ghi mẫu · page 1</text><rect x="936" y="748.88" width="125" height="38" rx="19.0" fill="#DEE5FF"/><text x="998.5" y="771.88" font-family="Open Sans" font-size="12" font-weight="600" fill="#142A62" text-anchor="middle">Trang tiếp</text><rect x="280" y="794.88" width="796" height="29" rx="8" fill="#F0F3F9"/><text x="293" y="814.88" font-family="Open Sans" font-size="9" font-weight="400" fill="#536076" text-anchor="start">↵ Edit     ⇥ Next cell     Esc Cancel     Ctrl+Z Undo     IME-safe</text><rect x="1112" y="299.88" width="284" height="535" rx="24" fill="#E9EEF7"/><text x="1134" y="335.88" font-family="Open Sans" font-size="17" font-weight="600" fill="#1C2638" text-anchor="start">Chi tiết &amp; ràng buộc</text><text x="1132" y="375.88" font-family="Open Sans" font-size="10" font-weight="600" fill="#536076" text-anchor="start">KIỂU CỘT</text><text x="1132" y="400.88" font-family="Open Sans" font-size="12" font-weight="600" fill="#1C2638" text-anchor="start">Liên kết → Khách hàng</text><text x="1132" y="439.88" font-family="Open Sans" font-size="10" font-weight="600" fill="#536076" text-anchor="start">Hiển thị</text><text x="1132" y="464.88" font-family="Open Sans" font-size="12" font-weight="600" fill="#1C2638" text-anchor="start">Tên khách hàng</text><text x="1132" y="503.88" font-family="Open Sans" font-size="10" font-weight="600" fill="#536076" text-anchor="start">Bắt buộc</text><text x="1132" y="528.88" font-family="Open Sans" font-size="12" font-weight="600" fill="#1C2638" text-anchor="start">Có</text><text x="1132" y="567.88" font-family="Open Sans" font-size="10" font-weight="600" fill="#536076" text-anchor="start">Khi xóa</text><text x="1132" y="592.88" font-family="Open Sans" font-size="12" font-weight="600" fill="#1C2638" text-anchor="start">Chặn khi còn đơn</text><text x="1132" y="631.88" font-family="Open Sans" font-size="10" font-weight="600" fill="#536076" text-anchor="start">Chiều ngược</text><text x="1132" y="656.88" font-family="Open Sans" font-size="12" font-weight="600" fill="#1C2638" text-anchor="start">Các đơn hàng (tự tạo)</text><text x="1132" y="695.88" font-family="Open Sans" font-size="10" font-weight="600" fill="#536076" text-anchor="start">Nâng cao</text><text x="1132" y="720.88" font-family="Open Sans" font-size="12" font-weight="600" fill="#1C2638" text-anchor="start">field_customer · Ref&lt;Customers&gt;</text><text x="264" y="978" font-family="Open Sans" font-size="9" font-weight="400" fill="#536076" text-anchor="start">DESIGN REFERENCE ONLY · Static SVG raster · Không phải browser screenshot hoặc production evidence</text></svg>