<svg xmlns="http://www.w3.org/2000/svg" width="1440" height="1000" viewBox="0 0 1440 1000"><title>Các bảng kết nối ra sao?</title><desc>Original static design reference, sample data; not runtime screenshot.</desc><rect width="1440" height="1000" fill="#F0F3F9"/><text x="28" y="19" font-family="Open Sans" font-size="8" font-weight="600" fill="#536076" text-anchor="start">EVOBASE · relations · STATIC DESIGN / SAMPLE DATA</text><rect x="0" y="28" width="1440" height="68" rx="0" fill="#FBFCFF"/><g transform="translate(28 44) scale(.48)"><rect width="64" height="64" rx="22" fill="#3154B8"/><path d="M20 17H45V24H27V29H41V36H27V41H45V48H20Z" fill="#FFFFFF"/><circle cx="47" cy="18" r="4" fill="#C4EFE3"/><path d="M42 20L48 15" stroke="#C4EFE3" stroke-width="3"/></g><text x="70" y="67" font-family="Open Sans" font-size="18" font-weight="600" fill="#1C2638" text-anchor="start">EvoBase</text><rect x="245" y="47" width="103" height="26" rx="13" fill="#DEE5FF"/><text x="257" y="65" font-family="Open Sans" font-size="10" font-weight="600" fill="#142A62" text-anchor="start">Builder</text><text x="370" y="67" font-family="Open Sans" font-size="13" font-weight="400" fill="#536076" text-anchor="start">Không gian   /   Bán hàng</text><rect x="977" y="42" width="310" height="44" rx="22" fill="#F0F3F9"/><text x="996" y="70" font-family="Open Sans" font-size="12" font-weight="400" fill="#536076" text-anchor="start">Tìm bảng, record, hành động…</text><rect x="1352" y="42" width="44" height="44" rx="18" fill="#C4EFE3"/><text x="1374" y="70" font-family="Open Sans" font-size="12" font-weight="600" fill="#003D35" text-anchor="middle">LA</text><rect x="20" y="112" width="216" height="848" rx="24" fill="#FBFCFF"/><text x="40" y="146" font-family="Open Sans" font-size="10" font-weight="600" fill="#536076" text-anchor="start">KHÔNG GIAN</text><text x="40" y="173" font-family="Open Sans" font-size="18" font-weight="600" fill="#1C2638" text-anchor="start">Bán hàng</text><rect x="30" y="201" width="196" height="49" rx="18" fill="#FBFCFF"/><g transform="translate(44 214) scale(0.9090909090909091)"><path d="M3 3H19V19H3ZM3 9H19M9 3V19" fill="none" stroke="#536076" stroke-width="1.7" stroke-linecap="round" stroke-linejoin="round"/></g><text x="75" y="231" font-family="Open Sans" font-size="10.5" font-weight="400" fill="#536076" text-anchor="start">Bảng dữ liệu</text><rect x="30" y="258" width="196" height="49" rx="18" fill="#DEE5FF"/><g transform="translate(44 271) scale(0.9090909090909091)"><path d="M4 5H8V9H4ZM14 13H18V17H14ZM8 7H16V13" fill="none" stroke="#142A62" stroke-width="1.7" stroke-linecap="round" stroke-linejoin="round"/></g><text x="75" y="288" font-family="Open Sans" font-size="10.5" font-weight="600" fill="#142A62" text-anchor="start">Cấu trúc &amp; Quan hệ</text><rect x="30" y="315" width="196" height="49" rx="18" fill="#FBFCFF"/><g transform="translate(44 328) scale(0.9090909090909091)"><path d="M11 2L19 5V11C19 16 11 20 11 20S3 16 3 11V5ZM7 10L10 13L16 7" fill="none" stroke="#536076" stroke-width="1.7" stroke-linecap="round" stroke-linejoin="round"/></g><text x="75" y="345" font-family="Open Sans" font-size="10.5" font-weight="400" fill="#536076" text-anchor="start">Quy tắc &amp; Quyền</text><rect x="30" y="372" width="196" height="49" rx="18" fill="#FBFCFF"/><g transform="translate(44 385) scale(0.9090909090909091)"><path d="M2 6H20V18H2ZM2 10H20M8 10V18" fill="none" stroke="#536076" stroke-width="1.7" stroke-linecap="round" stroke-linejoin="round"/></g><text x="75" y="402" font-family="Open Sans" font-size="10.5" font-weight="400" fill="#536076" text-anchor="start">Chế độ xem</text><rect x="30" y="429" width="196" height="49" rx="18" fill="#FBFCFF"/><g transform="translate(44 442) scale(0.9090909090909091)"><path d="M4 2V7H9V12H16V18M1 2H7M13 18H19" fill="none" stroke="#536076" stroke-width="1.7" stroke-linecap="round" stroke-linejoin="round"/></g><text x="75" y="459" font-family="Open Sans" font-size="10.5" font-weight="400" fill="#536076" text-anchor="start">Hành động &amp; Quy trình</text><rect x="30" y="486" width="196" height="49" rx="18" fill="#FBFCFF"/><g transform="translate(44 499) scale(0.9090909090909091)"><path d="M7 4V9M15 4V9M5 9H17V13C17 17 5 17 5 13ZM11 17V21" fill="none" stroke="#536076" stroke-width="1.7" stroke-linecap="round" stroke-linejoin="round"/></g><text x="75" y="516" font-family="Open Sans" font-size="10.5" font-weight="400" fill="#536076" text-anchor="start">Kết nối</text><rect x="30" y="543" width="196" height="49" rx="18" fill="#FBFCFF"/><g transform="translate(44 556) scale(0.9090909090909091)"><path d="M4 4H18V18H4ZM8 11L11 8L14 11M11 8V16" fill="none" stroke="#536076" stroke-width="1.7" stroke-linecap="round" stroke-linejoin="round"/></g><text x="75" y="573" font-family="Open Sans" font-size="10.5" font-weight="400" fill="#536076" text-anchor="start">Xuất bản</text><path d="M40 776L214 776" stroke="#C3CDDD" stroke-width="1" fill="none"/><rect x="40" y="799" width="174" height="26" rx="13" fill="#DEE5FF"/><text x="52" y="817" font-family="Open Sans" font-size="10" font-weight="600" fill="#142A62" text-anchor="start">BẢN NHÁP 12</text><text x="40" y="849.0" font-family="Open Sans" font-size="11" font-weight="400" fill="#536076" text-anchor="start">Builder và Runtime có quyền và</text><text x="40" y="866.6" font-family="Open Sans" font-size="11" font-weight="400" fill="#536076" text-anchor="start">vòng đời riêng.</text><text x="40" y="931" font-family="Open Sans" font-size="12" font-weight="400" fill="#536076" text-anchor="start">?  Trợ giúp</text><text x="264" y="134" font-family="Open Sans" font-size="10" font-weight="600" fill="#536076" text-anchor="start">CẤU TRÚC / 4 BẢNG CÓ KIỂU</text><text x="264" y="172.0" font-family="Open Sans" font-size="36" font-weight="600" fill="#1C2638" text-anchor="start">Các bảng kết nối ra sao?</text><text x="264" y="226.07999999999998" font-family="Open Sans" font-size="13" font-weight="400" fill="#536076" text-anchor="start">Liên kết để thông tin đi cùng nhau, không cần nhập lại.</text><rect x="264" y="255.88" width="109.859375" height="26" rx="13" fill="#DEE5FF"/><text x="276" y="273.88" font-family="Open Sans" font-size="10" font-weight="600" fill="#142A62" text-anchor="start">4 bảng · bản nháp</text><rect x="1151" y="153" width="245" height="48" rx="24.0" fill="#3154B8"/><text x="1273.5" y="181.0" font-family="Open Sans" font-size="12" font-weight="600" fill="#FFFFFF" text-anchor="middle">Thêm quan hệ</text><rect x="264" y="299.88" width="828" height="542" rx="24" fill="#FBFCFF"/><rect x="292" y="362.88" width="260" height="177" rx="20" fill="#F0F3F9"/><text x="312" y="395.88" font-family="Open Sans" font-size="18" font-weight="600" fill="#1C2638" text-anchor="start">Customers</text><text x="312" y="426.88" font-family="Open Sans" font-size="11" font-weight="400" fill="#536076" text-anchor="start">name · email · owner</text><path d="M312 466.88L532 466.88" stroke="#C3CDDD" stroke-width="1" fill="none"/><text x="312" y="495.88" font-family="Open Sans" font-size="10" font-weight="600" fill="#3154B8" text-anchor="start">Orders ← reverse(Orders.customer)</text><rect x="784" y="362.88" width="260" height="177" rx="20" fill="#DEE5FF"/><text x="804" y="395.88" font-family="Open Sans" font-size="18" font-weight="600" fill="#1C2638" text-anchor="start">Orders</text><text x="804" y="426.88" font-family="Open Sans" font-size="11" font-weight="400" fill="#536076" text-anchor="start">customer: Ref · state: Enum</text><path d="M804 466.88L1024 466.88" stroke="#C3CDDD" stroke-width="1" fill="none"/><text x="804" y="495.88" font-family="Open Sans" font-size="10" font-weight="600" fill="#3154B8" text-anchor="start">total := sum(lines.amount)</text><rect x="292" y="603.88" width="260" height="177" rx="20" fill="#F0F3F9"/><text x="312" y="636.88" font-family="Open Sans" font-size="18" font-weight="600" fill="#1C2638" text-anchor="start">Products</text><text x="312" y="667.88" font-family="Open Sans" font-size="11" font-weight="400" fill="#536076" text-anchor="start">name · price · active</text><path d="M312 707.88L532 707.88" stroke="#C3CDDD" stroke-width="1" fill="none"/><text x="312" y="736.88" font-family="Open Sans" font-size="10" font-weight="600" fill="#3154B8" text-anchor="start">Giá hiện tại không đổi giá đã chốt</text><rect x="784" y="603.88" width="260" height="177" rx="20" fill="#F0F3F9"/><text x="804" y="636.88" font-family="Open Sans" font-size="18" font-weight="600" fill="#1C2638" text-anchor="start">OrderLines</text><text x="804" y="667.88" font-family="Open Sans" font-size="11" font-weight="400" fill="#536076" text-anchor="start">order: Ref · product: Ref</text><path d="M804 707.88L1024 707.88" stroke="#C3CDDD" stroke-width="1" fill="none"/><text x="804" y="736.88" font-family="Open Sans" font-size="10" font-weight="600" fill="#3154B8" text-anchor="start">qty · captured_unit_price · amount</text><path d="M552 451.88L784 451.88" stroke="#3154B8" stroke-width="2" fill="none"/><rect x="650.0" y="436.88" width="64" height="26" rx="13" fill="#DEE5FF"/><text x="662.0" y="454.88" font-family="Open Sans" font-size="10" font-weight="600" fill="#142A62" text-anchor="start">1 : N</text><path d="M914 539.88L914 603.88" stroke="#3154B8" stroke-width="2" fill="none"/><rect x="884" y="558.88" width="64" height="26" rx="13" fill="#DEE5FF"/><text x="896" y="576.88" font-family="Open Sans" font-size="10" font-weight="600" fill="#142A62" text-anchor="start">1 : N</text><path d="M552 692.88L784 692.88" stroke="#006B5E" stroke-width="2" fill="none"/><rect x="650.0" y="677.88" width="64" height="26" rx="13" fill="#DEE5FF"/><text x="662.0" y="695.88" font-family="Open Sans" font-size="10" font-weight="600" fill="#142A62" text-anchor="start">1 : N</text><text x="292" y="813.88" font-family="Open Sans" font-size="11" font-weight="400" fill="#536076" text-anchor="start">Ref identity → canonical value · edges/indexes là projection</text><rect x="1112" y="299.88" width="284" height="542" rx="24" fill="#E9EEF7"/><text x="1134" y="335.88" font-family="Open Sans" font-size="17" font-weight="600" fill="#1C2638" text-anchor="start">Chi tiết &amp; ràng buộc</text><text x="1132" y="375.88" font-family="Open Sans" font-size="10" font-weight="600" fill="#536076" text-anchor="start">Orders.customer</text><text x="1132" y="400.88" font-family="Open Sans" font-size="12" font-weight="600" fill="#1C2638" text-anchor="start">N:1 → Customers</text><text x="1132" y="439.88" font-family="Open Sans" font-size="10" font-weight="600" fill="#536076" text-anchor="start">Delete</text><text x="1132" y="464.88" font-family="Open Sans" font-size="12" font-weight="600" fill="#1C2638" text-anchor="start">Restrict</text><text x="1132" y="503.88" font-family="Open Sans" font-size="10" font-weight="600" fill="#536076" text-anchor="start">1:1 / Một-một</text><text x="1132" y="528.88" font-family="Open Sans" font-size="12" font-weight="600" fill="#1C2638" text-anchor="start">Mục tiêu sau gate · chưa bật</text><text x="1132" y="567.88" font-family="Open Sans" font-size="10" font-weight="600" fill="#536076" text-anchor="start">N:M / Nhiều-nhiều</text><text x="1132" y="592.88" font-family="Open Sans" font-size="12" font-weight="600" fill="#1C2638" text-anchor="start">Mục tiêu sau gate · chưa bật</text><text x="1132" y="631.88" font-family="Open Sans" font-size="10" font-weight="600" fill="#536076" text-anchor="start">Ref scope</text><text x="1132" y="656.88" font-family="Open Sans" font-size="12" font-weight="600" fill="#1C2638" text-anchor="start">Cùng tenant + app instance</text><text x="264" y="978" font-family="Open Sans" font-size="9" font-weight="400" fill="#536076" text-anchor="start">DESIGN REFERENCE ONLY · Static SVG raster · Không phải browser screenshot hoặc production evidence</text></svg>