<svg xmlns="http://www.w3.org/2000/svg" width="390" height="986.76" viewBox="0 0 390 986.76"><title>Hôm nay cần làm gì?</title><desc>Original static design reference, sample data; not runtime screenshot.</desc><rect width="390" height="986.76" fill="#182131"/><text x="16" y="19" font-family="Open Sans" font-size="8" font-weight="600" fill="#B7C3D8" text-anchor="start">EVOBASE · runtime-home · STATIC DESIGN / SAMPLE DATA</text><rect x="0" y="28" width="390" height="60" rx="0" fill="#111824"/><g transform="translate(16 44) scale(.48)"><rect width="64" height="64" rx="22" fill="#3154B8"/><path d="M20 17H45V24H27V29H41V36H27V41H45V48H20Z" fill="#FFFFFF"/><circle cx="47" cy="18" r="4" fill="#C4EFE3"/><path d="M42 20L48 15" stroke="#C4EFE3" stroke-width="3"/></g><text x="57" y="67" font-family="Open Sans" font-size="18" font-weight="600" fill="#E1E8F5" text-anchor="start">EvoBase</text><rect x="209" y="47" width="83" height="26" rx="13" fill="#284593"/><text x="221" y="65" font-family="Open Sans" font-size="10" font-weight="600" fill="#DEE5FF" text-anchor="start">Runtime</text><rect x="326" y="43" width="44" height="44" rx="18" fill="#005046"/><text x="348" y="71" font-family="Open Sans" font-size="12" font-weight="600" fill="#C4EFE3" text-anchor="middle">LA</text><text x="16" y="121" font-family="Open Sans" font-size="9" font-weight="600" fill="#B7C3D8" text-anchor="start">KHÔNG GIAN BÁN HÀNG / SALES / PHIÊN BẢN 1.2</text><text x="16" y="159.0" font-family="Open Sans" font-size="27" font-weight="600" fill="#E1E8F5" text-anchor="start">Hôm nay cần làm gì?</text><text x="16" y="201.56" font-family="Open Sans" font-size="12" font-weight="400" fill="#B7C3D8" text-anchor="start">Công việc đang chờ bạn và những đơn hàng gần đây.</text><rect x="16" y="229.76" width="78.96875" height="26" rx="13" fill="#284593"/><text x="28" y="247.76" font-family="Open Sans" font-size="10" font-weight="600" fill="#DEE5FF" text-anchor="start">Đã đồng bộ</text><rect x="16" y="273.76" width="358" height="101" rx="28" fill="#005046"/><text x="36" y="302.76" font-family="Open Sans" font-size="10" font-weight="600" fill="#C4EFE3" text-anchor="start">CHỜ BẠN XỬ LÝ</text><text x="36" y="348.76" font-family="Open Sans" font-size="36" font-weight="600" fill="#C4EFE3" text-anchor="start">3</text><text x="82" y="345.76" font-family="Open Sans" font-size="17" font-weight="600" fill="#C4EFE3" text-anchor="start">yêu cầu cần duyệt</text><text x="350" y="345.76" font-family="Open Sans" font-size="22" font-weight="600" fill="#C4EFE3" text-anchor="end">→</text><text x="16" y="402.76" font-family="Open Sans" font-size="18" font-weight="600" fill="#E1E8F5" text-anchor="start">Cần quyết định</text><rect x="16" y="420.76" width="358" height="82" rx="16" fill="#111824"/><text x="34" y="444.76" font-family="Open Sans" font-size="12" font-weight="600" fill="#E1E8F5" text-anchor="start">ORD-1048 · Minh An</text><text x="34" y="467.76" font-family="Open Sans" font-size="14" font-weight="600" fill="#E1E8F5" text-anchor="start">12.480.000 ₫</text><text x="34" y="488.76" font-family="Open Sans" font-size="10" font-weight="400" fill="#B7C3D8" text-anchor="start">Hạn 16:30 · Linh</text><rect x="272" y="438.76" width="84" height="26" rx="13" fill="#284593"/><text x="284" y="456.76" font-family="Open Sans" font-size="10" font-weight="600" fill="#DEE5FF" text-anchor="start">Cần duyệt</text><rect x="16" y="510.76" width="358" height="82" rx="16" fill="#111824"/><text x="34" y="534.76" font-family="Open Sans" font-size="12" font-weight="600" fill="#E1E8F5" text-anchor="start">ORD-1044 · Bình Minh</text><text x="34" y="557.76" font-family="Open Sans" font-size="14" font-weight="600" fill="#E1E8F5" text-anchor="start">6.740.000 ₫</text><text x="34" y="578.76" font-family="Open Sans" font-size="10" font-weight="400" fill="#B7C3D8" text-anchor="start">Hạn ngày mai · An</text><rect x="272" y="528.76" width="84" height="26" rx="13" fill="#284593"/><text x="284" y="546.76" font-family="Open Sans" font-size="10" font-weight="600" fill="#DEE5FF" text-anchor="start">Cần duyệt</text><text x="16" y="622.76" font-family="Open Sans" font-size="18" font-weight="600" fill="#E1E8F5" text-anchor="start">Đơn hàng gần đây</text><rect x="16" y="640.76" width="358" height="78" rx="16" fill="#111824"/><text x="34" y="665.76" font-family="Open Sans" font-size="12" font-weight="600" fill="#E1E8F5" text-anchor="start">ORD-1047 · An Phú</text><text x="34" y="689.76" font-family="Open Sans" font-size="13" font-weight="600" fill="#E1E8F5" text-anchor="start">4.620.000 ₫</text><text x="356" y="689.76" font-family="Open Sans" font-size="10" font-weight="600" fill="#B5C5FF" text-anchor="end">Nháp</text><text x="34" y="707.76" font-family="Open Sans" font-size="9" font-weight="400" fill="#B7C3D8" text-anchor="start">10 phút trước · Bạn</text><rect x="16" y="726.76" width="358" height="78" rx="16" fill="#111824"/><text x="34" y="751.76" font-family="Open Sans" font-size="12" font-weight="600" fill="#E1E8F5" text-anchor="start">ORD-1045 · Đông Nam</text><text x="34" y="775.76" font-family="Open Sans" font-size="13" font-weight="600" fill="#E1E8F5" text-anchor="start">2.180.000 ₫</text><text x="356" y="775.76" font-family="Open Sans" font-size="10" font-weight="600" fill="#B5C5FF" text-anchor="end">Nháp</text><text x="34" y="793.76" font-family="Open Sans" font-size="9" font-weight="400" fill="#B7C3D8" text-anchor="start">25 phút trước · Bạn</text><rect x="0" y="854.76" width="390" height="132" rx="0" fill="#111824"/><rect x="16" y="868.76" width="358" height="48" rx="24.0" fill="#B5C5FF"/><text x="195.0" y="896.76" font-family="Open Sans" font-size="11" font-weight="600" fill="#002974" text-anchor="middle">Tạo đơn hàng</text><path d="M0 929.76L390 929.76" stroke="#40506A" stroke-width="1" fill="none"/><g transform="translate(38 941.76) scale(0.8636363636363636)"><path d="M3 10L11 3L19 10V19H3Z" fill="none" stroke="#B5C5FF" stroke-width="1.7" stroke-linecap="round" stroke-linejoin="round"/></g><text x="49" y="976.76" font-family="Open Sans" font-size="8" font-weight="600" fill="#B5C5FF" text-anchor="middle">Đơn hàng</text><g transform="translate(135 941.76) scale(0.8636363636363636)"><path d="M4 3H18V19H4ZM7 7L9 9L13 5M7 14H15" fill="none" stroke="#B7C3D8" stroke-width="1.7" stroke-linecap="round" stroke-linejoin="round"/></g><text x="146" y="976.76" font-family="Open Sans" font-size="8" font-weight="600" fill="#B7C3D8" text-anchor="middle">Công việc</text><g transform="translate(232 941.76) scale(0.8636363636363636)"><path d="M3 4H19V16H10L5 20V16H3Z" fill="none" stroke="#B7C3D8" stroke-width="1.7" stroke-linecap="round" stroke-linejoin="round"/></g><text x="243" y="976.76" font-family="Open Sans" font-size="8" font-weight="600" fill="#B7C3D8" text-anchor="middle">Hộp thư</text><g transform="translate(329 941.76) scale(0.8636363636363636)"><path d="M11 4A7 7 0 1 1 10.9 4M11 8A3 3 0 1 1 10.9 8" fill="none" stroke="#B7C3D8" stroke-width="1.7" stroke-linecap="round" stroke-linejoin="round"/></g><text x="340" y="976.76" font-family="Open Sans" font-size="8" font-weight="600" fill="#B7C3D8" text-anchor="middle">Khác</text></svg>